<svg width="162" height="43" viewBox="0 0 162 43" fill="none" xmlns="http://www.w3.org/2000/svg">
<path d="M18.1422 0.0794348L0.302999 10.3585C0.114648 10.4666 0 10.6664 0 10.8842V31.552C0 31.7682 0.116286 31.9696 0.302999 32.0777L5.23778 34.9259C5.64232 35.1601 6.14678 34.8669 6.14678 34.4002V14.4547C6.14678 14.2385 6.26306 14.037 6.44978 13.9289L23.6814 3.98075C24.0859 3.74654 24.0859 3.16347 23.6814 2.9309L18.7482 0.0810726C18.5615 -0.0270242 18.3306 -0.0270242 18.1422 0.0810726V0.0794348Z" fill="#2C63E2"/>
<path d="M28.6231 6.12508L11.1819 16.1142C10.9968 16.2207 10.8838 16.4172 10.8838 16.6301V22.3216C10.8838 22.7785 11.3768 23.0635 11.7731 22.8375L28.5183 13.2333C28.7017 13.1284 28.9278 13.1284 29.1112 13.2333L30.8047 14.211C30.9882 14.3175 31.1012 14.514 31.1012 14.7253V16.5138C31.1012 16.7268 30.9882 16.9217 30.8047 17.0281L13.9318 26.7617C13.5354 26.991 13.5354 27.5626 13.9318 27.7903L18.901 30.6581C19.0844 30.7646 19.3104 30.7646 19.4955 30.6581L30.2135 24.4704C30.6098 24.2411 31.1044 24.5277 31.1044 24.9847V28.5273C31.1044 28.7402 30.9914 28.9351 30.808 29.0416L18.729 36.0155L18.7159 36.0089L18.7126 36.0155L15.1487 33.9584L11.7764 32.0192C11.3801 31.7915 10.8854 32.0781 10.8854 32.5335V37.899C10.8854 38.1119 11.0001 38.3084 11.1835 38.4149L18.7536 42.7568C18.937 42.8616 19.163 42.8616 19.3465 42.7568L36.9548 32.5908C37.1382 32.4843 37.2512 32.2878 37.2512 32.0765V11.1074C37.2512 10.8944 37.1382 10.6995 36.9548 10.5931L29.2177 6.12672C29.0342 6.02026 28.8082 6.02026 28.6248 6.12672L28.6231 6.12508Z" fill="#2C63E2"/>
<path d="M80.2593 11.0304C77.3964 11.0304 74.9134 12.0623 72.8792 14.0965C70.845 16.1307 69.8132 18.6136 69.8132 21.4765V31.8948H74.178V21.4765C74.178 19.7846 74.7611 18.3778 75.9616 17.1772C77.1621 15.9767 78.5674 15.3936 80.2609 15.3936C81.9544 15.3936 83.3302 15.9767 84.5307 17.1772C85.7313 18.3778 86.3143 19.7846 86.3143 21.4765V31.8948H90.6792V21.4765C90.6792 18.6136 89.6473 16.1307 87.6164 14.0997C85.6002 12.0623 83.1255 11.0288 80.2609 11.0288L80.2593 11.0304Z" fill="white"/>
<path d="M128.282 26.4226L121.097 11.0303H116.285L125.051 29.8408C125.668 31.1838 126.787 31.8946 128.284 31.8946C129.781 31.8946 130.87 31.1903 131.514 29.8457L140.281 11.0303H135.44L128.282 26.4226Z" fill="white"/>
<path d="M158.936 14.0997C156.92 12.0623 154.445 11.0288 151.58 11.0288C148.716 11.0288 146.234 12.0606 144.197 14.0997C142.184 16.1339 141.164 18.6152 141.164 21.4765C141.164 24.3378 142.186 26.8126 144.202 28.8287C146.236 30.8629 148.719 31.8948 151.582 31.8948C154.445 31.8948 156.921 30.8613 158.929 28.832C160.967 26.8159 162 24.3411 162 21.4765C162 18.612 160.968 16.1307 158.937 14.0997H158.936ZM151.582 27.5299C149.888 27.5299 148.483 26.9469 147.289 25.7513C146.105 24.5507 145.528 23.152 145.528 21.4765C145.528 19.801 146.103 18.3728 147.283 17.1772C148.483 15.9767 149.888 15.3936 151.582 15.3936C153.275 15.3936 154.666 15.9751 155.852 17.1772C157.052 18.3778 157.635 19.7846 157.635 21.4765C157.635 23.1684 157.052 24.5458 155.847 25.7513C154.666 26.9485 153.272 27.5299 151.582 27.5299Z" fill="white"/>
<path d="M50.6458 20.0091V17.2264C50.6458 16.6843 50.8292 16.2486 51.2108 15.867C51.6072 15.4838 52.0461 15.3052 52.5948 15.3052H57.9046L60.5677 10.9404H52.5948C50.8554 10.9404 49.3568 11.5563 48.135 12.7797C46.923 14.013 46.3088 15.51 46.3088 17.2248L46.2793 31.8932H50.6441V24.3723H57.9046V20.0075H50.6441L50.6458 20.0091Z" fill="white"/>
<path d="M66.2855 11.0308H61.9207V15.3055H66.2855V11.0308Z" fill="white"/>
<path d="M66.2855 17.1631H61.9207V31.8937H66.2855V17.1631Z" fill="white"/>
<path d="M109.875 25.635C108.568 26.9092 106.91 27.5299 104.822 27.5299C103.474 27.5299 102.301 27.1467 101.235 26.3605C100.284 25.6579 99.617 24.7751 99.1994 23.6565L115.075 23.6286L115.175 22.6787C115.217 22.2791 115.239 21.8745 115.239 21.4765C115.239 18.6136 114.207 16.1307 112.176 14.0997C110.16 12.0623 107.685 11.0288 104.82 11.0288C101.956 11.0288 99.4745 12.0606 97.4371 14.0997C95.4242 16.1339 94.4038 18.6152 94.4038 21.4765C94.4038 24.3378 95.4242 26.7913 97.442 28.8287C99.4762 30.8629 101.959 31.8948 104.822 31.8948C106.475 31.8948 108.126 31.5361 109.732 30.8269C110.984 30.2668 112.06 29.5559 112.949 28.7108L109.873 25.635H109.875ZM101.243 16.586C102.308 15.7834 103.477 15.3936 104.822 15.3936C106.167 15.3936 107.308 15.7834 108.381 16.5925C109.342 17.3017 110.021 18.1894 110.448 19.2949H99.1928C99.6056 18.1878 100.277 17.3017 101.245 16.586H101.243Z" fill="white"/>
</svg>
