<svg width="131" height="36" viewBox="0 0 131 36" fill="none" xmlns="http://www.w3.org/2000/svg">
<path d="M15.0586 0.876732L0.743147 9.12531C0.592001 9.21206 0.5 9.3724 0.5 9.54721V26.1324C0.5 26.3059 0.593316 26.4676 0.743147 26.5543L4.70315 28.8399C5.02778 29.0278 5.43259 28.7926 5.43259 28.418V12.4124C5.43259 12.2389 5.5259 12.0772 5.67574 11.9905L19.5035 4.00741C19.8282 3.81946 19.8282 3.35157 19.5035 3.16494L15.5449 0.878046C15.395 0.791302 15.2097 0.791302 15.0586 0.878046V0.876732Z" fill="#2C63E2"/>
<path d="M23.4691 5.72816L9.47309 13.7441C9.32457 13.8295 9.23389 13.9873 9.23389 14.1581V18.7253C9.23389 19.092 9.62949 19.3207 9.94755 19.1393L23.385 11.4322C23.5322 11.3481 23.7136 11.3481 23.8608 11.4322L25.2198 12.2169C25.367 12.3023 25.4577 12.46 25.4577 12.6296V14.0648C25.4577 14.2357 25.367 14.3921 25.2198 14.4775L11.6798 22.2884C11.3617 22.4724 11.3617 22.9311 11.6798 23.1138L15.6674 25.4151C15.8146 25.5006 15.996 25.5006 16.1445 25.4151L24.7453 20.4497C25.0634 20.2657 25.4603 20.4957 25.4603 20.8624V23.7052C25.4603 23.8761 25.3696 24.0325 25.2224 24.1179L15.5294 29.7142L15.5189 29.709L15.5163 29.7142L12.6563 28.0635L9.95018 26.5073C9.63212 26.3246 9.2352 26.5546 9.2352 26.92V31.2257C9.2352 31.3965 9.3272 31.5543 9.4744 31.6397L15.5491 35.1239C15.6963 35.208 15.8777 35.208 16.0249 35.1239L30.155 26.966C30.3022 26.8806 30.3929 26.7229 30.3929 26.5533V9.72628C30.3929 9.55542 30.3022 9.39902 30.155 9.31359L23.9462 5.72948C23.799 5.64405 23.6176 5.64405 23.4704 5.72948L23.4691 5.72816Z" fill="#2C63E2"/>
<path d="M64.9052 9.66464C62.6078 9.66464 60.6153 10.4927 58.983 12.125C57.3506 13.7574 56.5226 15.7499 56.5226 18.0473V26.4076H60.0252V18.0473C60.0252 16.6896 60.4931 15.5606 61.4565 14.5972C62.4199 13.6338 63.5475 13.166 64.9065 13.166C66.2655 13.166 67.3695 13.6338 68.3329 14.5972C69.2963 15.5606 69.7642 16.6896 69.7642 18.0473V26.4076H73.2668V18.0473C73.2668 15.7499 72.4388 13.7574 70.8091 12.1277C69.1912 10.4927 67.2053 9.66333 64.9065 9.66333L64.9052 9.66464Z" fill="black"/>
<path d="M103.442 22.0165L97.6766 9.66461H93.8152L100.849 24.7594C101.345 25.8371 102.243 26.4076 103.444 26.4076C104.645 26.4076 105.519 25.8424 106.036 24.7634L113.071 9.66461H109.186L103.442 22.0165Z" fill="black"/>
<path d="M128.041 12.1276C126.423 10.4926 124.437 9.66327 122.138 9.66327C119.84 9.66327 117.848 10.4913 116.213 12.1276C114.598 13.76 113.779 15.7511 113.779 18.0472C113.779 20.3433 114.599 22.3292 116.217 23.9471C117.85 25.5795 119.842 26.4075 122.14 26.4075C124.437 26.4075 126.424 25.5782 128.036 23.9498C129.671 22.3319 130.5 20.3459 130.5 18.0472C130.5 15.7485 129.672 13.7573 128.042 12.1276H128.041ZM122.14 22.9049C120.781 22.9049 119.653 22.437 118.695 21.4776C117.745 20.5142 117.282 19.3918 117.282 18.0472C117.282 16.7027 117.743 15.5566 118.69 14.5972C119.653 13.6338 120.781 13.1659 122.14 13.1659C123.499 13.1659 124.614 13.6325 125.566 14.5972C126.529 15.5606 126.997 16.6895 126.997 18.0472C126.997 19.4049 126.529 20.5102 125.562 21.4776C124.614 22.4383 123.496 22.9049 122.14 22.9049Z" fill="black"/>
<path d="M41.1416 16.8697V14.6367C41.1416 14.2016 41.2888 13.852 41.595 13.5458C41.9131 13.2382 42.2653 13.095 42.7056 13.095H46.9666L49.1036 9.59235H42.7056C41.3098 9.59235 40.1072 10.0865 39.1267 11.0683C38.1542 12.058 37.6613 13.2593 37.6613 14.6353L37.6376 26.4063H41.1403V20.371H46.9666V16.8683H41.1403L41.1416 16.8697Z" fill="black"/>
<path d="M53.6921 9.66467H50.1895V13.095H53.6921V9.66467Z" fill="black"/>
<path d="M53.6921 14.5855H50.1895V26.4064H53.6921V14.5855Z" fill="black"/>
<path d="M88.6709 21.3843C87.622 22.4068 86.292 22.905 84.6162 22.905C83.5345 22.905 82.5935 22.5974 81.7379 21.9665C80.9743 21.4027 80.4394 20.6943 80.1042 19.7966L92.8438 19.7743L92.9239 19.012C92.9581 18.6913 92.9752 18.3667 92.9752 18.0473C92.9752 15.7499 92.1472 13.7574 90.5175 12.1277C88.8995 10.4927 86.9136 9.66333 84.6149 9.66333C82.3162 9.66333 80.325 10.4913 78.69 12.1277C77.0747 13.76 76.2559 15.7512 76.2559 18.0473C76.2559 20.3434 77.0747 22.3122 78.694 23.9472C80.3263 25.5796 82.3188 26.4076 84.6162 26.4076C85.9424 26.4076 87.2672 26.1197 88.5565 25.5507C89.5606 25.1012 90.4241 24.5308 91.1378 23.8526L88.6695 21.3843H88.6709ZM81.7445 14.1228C82.5988 13.4788 83.5372 13.166 84.6162 13.166C85.6953 13.166 86.6113 13.4788 87.4722 14.128C88.2437 14.6971 88.7878 15.4095 89.1309 16.2966H80.0989C80.4302 15.4082 80.969 14.6971 81.7458 14.1228H81.7445Z" fill="black"/>
</svg>
