<svg width="95" height="96" viewBox="0 0 95 96" fill="none" xmlns="http://www.w3.org/2000/svg">
<ellipse cx="68.9118" cy="49.4855" rx="11.3383" ry="26.4998" transform="rotate(180 68.9118 49.4855)" fill="#2C63E2"/>
<path d="M57.9515 49.4855C57.9515 42.2063 59.2146 35.6342 61.2419 30.896C62.2559 28.5262 63.4535 26.6326 64.7641 25.337C66.0732 24.0429 67.4744 23.3636 68.9118 23.3636C70.3493 23.3636 71.7505 24.0429 73.0595 25.337C74.3701 26.6326 75.5678 28.5262 76.5817 30.896C78.609 35.6342 79.8722 42.2063 79.8722 49.4855C79.8722 56.7647 78.609 63.3368 76.5817 68.0751C75.5678 70.4449 74.3701 72.3384 73.0595 73.6341C71.7505 74.9281 70.3493 75.6074 68.9118 75.6074C67.4744 75.6074 66.0732 74.9281 64.7642 73.6341C63.4535 72.3384 62.2559 70.4449 61.2419 68.0751C59.2146 63.3368 57.9515 56.7647 57.9515 49.4855Z" stroke="#2C63E2" stroke-opacity="0.8" stroke-width="0.755886"/>
<path d="M49.637 49.4855C49.637 42.2063 50.9001 35.6342 52.9274 30.896C53.9414 28.5262 55.139 26.6326 56.4497 25.337C57.7587 24.0429 59.1599 23.3636 60.5973 23.3636C62.0348 23.3636 63.436 24.0429 64.745 25.337C66.0556 26.6326 67.2533 28.5262 68.2672 30.896C70.2945 35.6342 71.5577 42.2063 71.5577 49.4855C71.5577 56.7647 70.2946 63.3368 68.2672 68.0751C67.2533 70.4449 66.0556 72.3384 64.745 73.6341C63.436 74.9281 62.0348 75.6074 60.5973 75.6074C59.1599 75.6074 57.7587 74.9281 56.4497 73.6341C55.139 72.3384 53.9414 70.4449 52.9274 68.0751C50.9001 63.3368 49.637 56.7647 49.637 49.4855Z" fill="#2C63E2" stroke="#2C63E2" stroke-width="0.755886"/>
<path opacity="0.8" d="M41.3215 49.4855C41.3215 42.2063 42.5846 35.6342 44.612 30.896C45.6259 28.5262 46.8235 26.6326 48.1342 25.337C49.4432 24.0429 50.8444 23.3636 52.2819 23.3636C53.7193 23.3636 55.1205 24.0429 56.4295 25.337C57.7402 26.6326 58.9378 28.5262 59.9518 30.896C61.9791 35.6342 63.2422 42.2063 63.2422 49.4855C63.2422 56.7647 61.9791 63.3368 59.9518 68.0751C58.9378 70.4449 57.7402 72.3384 56.4295 73.6341C55.1205 74.9281 53.7193 75.6074 52.2819 75.6074C50.8444 75.6074 49.4432 74.9281 48.1342 73.6341C46.8236 72.3384 45.6259 70.4449 44.612 68.0751C42.5846 63.3368 41.3215 56.7647 41.3215 49.4855Z" fill="#2C63E2" stroke="#2C63E2" stroke-width="0.755886"/>
<path opacity="0.6" d="M33.007 49.4855C33.007 42.2063 34.2701 35.6342 36.2974 30.896C37.3114 28.5262 38.509 26.6326 39.8197 25.337C41.1287 24.0429 42.5299 23.3636 43.9673 23.3636C45.4048 23.3636 46.806 24.0429 48.115 25.337C49.4256 26.6326 50.6233 28.5262 51.6372 30.896C53.6645 35.6342 54.9277 42.2063 54.9277 49.4855C54.9277 56.7647 53.6645 63.3368 51.6372 68.0751C50.6233 70.4449 49.4256 72.3384 48.115 73.6341C46.806 74.9281 45.4048 75.6074 43.9673 75.6074C42.5299 75.6074 41.1287 74.9281 39.8197 73.6341C38.509 72.3384 37.3114 70.4449 36.2974 68.0751C34.2701 63.3368 33.007 56.7647 33.007 49.4855Z" fill="#2C63E2" stroke="#2C63E2" stroke-width="0.755886"/>
<path opacity="0.4" d="M24.6929 49.4855C24.6929 42.2063 25.956 35.6342 27.9833 30.896C28.9973 28.5262 30.1949 26.6326 31.5056 25.337C32.8146 24.0429 34.2158 23.3636 35.6533 23.3636C37.0907 23.3636 38.4919 24.0429 39.8009 25.337C41.1116 26.6326 42.3092 28.5262 43.3232 30.896C45.3505 35.6342 46.6136 42.2063 46.6136 49.4855C46.6136 56.7647 45.3505 63.3368 43.3232 68.0751C42.3092 70.4449 41.1116 72.3384 39.8009 73.6341C38.4919 74.9281 37.0907 75.6074 35.6533 75.6074C34.2158 75.6074 32.8146 74.9281 31.5056 73.6341C30.1949 72.3384 28.9973 70.4449 27.9833 68.0751C25.956 63.3368 24.6929 56.7647 24.6929 49.4855Z" fill="#2C63E2" stroke="#2C63E2" stroke-width="0.755886"/>
<ellipse opacity="0.2" cx="27.3383" cy="49.4855" rx="11.3383" ry="26.4998" transform="rotate(180 27.3383 49.4855)" fill="#2C63E2"/>
</svg>
