<svg width="95" height="96" viewBox="0 0 95 96" fill="none" xmlns="http://www.w3.org/2000/svg">
<path d="M51.9898 52.5791L26.5829 76.3607" stroke="#2C63E2" stroke-width="2.67696" stroke-linecap="round"/>
<path d="M37.2636 49.2509C41.2194 53.4771 47.0393 52.9357 51.2698 51.4876C52.1728 51.1785 53.3982 52.4877 53.0302 53.3683C51.306 57.494 50.3817 63.2655 54.3376 67.4917" stroke="#2C63E2" stroke-width="2.67696" stroke-linecap="round"/>
<g opacity="0.6">
<path d="M28.2911 53.1299L9.60096 70.6244" stroke="#2C63E2" stroke-width="1.96926" stroke-linecap="round"/>
<path d="M17.4577 50.6815C20.3678 53.7904 24.6491 53.3922 27.7612 52.3269C28.4255 52.0995 29.3269 53.0626 29.0562 53.7104C27.7878 56.7454 27.1079 60.9911 30.0179 64.1" stroke="#2C63E2" stroke-width="1.96926" stroke-linecap="round"/>
</g>
<path d="M79.5379 21.2943L73.4297 32.3627L82.0689 41.5923L69.6546 39.2034L63.5464 50.2719L61.9822 37.727L49.5679 35.3381L61.0154 29.9738L59.4512 17.4289L68.0904 26.6585L79.5379 21.2943Z" fill="#D5E0F9"/>
</svg>
