<svg width="38" height="43" viewBox="0 0 38 43" fill="none" xmlns="http://www.w3.org/2000/svg">
<path d="M18.1422 0.0794348L0.302999 10.3585C0.114648 10.4666 0 10.6664 0 10.8842V31.552C0 31.7682 0.116286 31.9696 0.302999 32.0777L5.23778 34.9259C5.64232 35.1601 6.14678 34.8669 6.14678 34.4002V14.4547C6.14678 14.2385 6.26306 14.037 6.44978 13.9289L23.6814 3.98075C24.0859 3.74654 24.0859 3.16347 23.6814 2.9309L18.7482 0.0810726C18.5615 -0.0270242 18.3306 -0.0270242 18.1422 0.0810726V0.0794348Z" fill="#2C63E2"/>
<path d="M28.6231 6.12508L11.1819 16.1142C10.9968 16.2207 10.8838 16.4172 10.8838 16.6301V22.3216C10.8838 22.7785 11.3768 23.0635 11.7731 22.8375L28.5183 13.2333C28.7017 13.1284 28.9278 13.1284 29.1112 13.2333L30.8047 14.211C30.9882 14.3175 31.1012 14.514 31.1012 14.7253V16.5138C31.1012 16.7268 30.9882 16.9217 30.8047 17.0281L13.9318 26.7617C13.5354 26.991 13.5354 27.5626 13.9318 27.7903L18.901 30.6581C19.0844 30.7646 19.3104 30.7646 19.4955 30.6581L30.2135 24.4704C30.6098 24.2411 31.1044 24.5277 31.1044 24.9847V28.5273C31.1044 28.7402 30.9914 28.9351 30.808 29.0416L18.729 36.0155L18.7159 36.0089L18.7126 36.0155L15.1487 33.9584L11.7764 32.0192C11.3801 31.7915 10.8854 32.0781 10.8854 32.5335V37.899C10.8854 38.1119 11.0001 38.3084 11.1835 38.4149L18.7536 42.7568C18.937 42.8616 19.163 42.8616 19.3465 42.7568L36.9548 32.5908C37.1382 32.4843 37.2512 32.2878 37.2512 32.0765V11.1074C37.2512 10.8944 37.1382 10.6995 36.9548 10.5931L29.2177 6.12672C29.0342 6.02026 28.8082 6.02026 28.6248 6.12672L28.6231 6.12508Z" fill="#2C63E2"/>
</svg>
